#tb 0: 1/30
0,          0,          0,        1,   589824, 0x0b181bbf
0,          1,          1,        1,   589824, 0xcd740f79
0,          2,          2,        1,   589824, 0x16f8f90e
0,          3,          3,        1,   589824, 0x1aaaceba
0,          4,          4,        1,   589824, 0x1aaaceba
0,          5,          5,        1,   589824, 0x902e8fe4
0,          6,          6,        1,   589824, 0x019a4443
0,          7,          7,        1,   589824, 0x019a4443
0,          8,          8,        1,   589824, 0x04eff6c6
